<svg xmlns="http://www.w3.org/2000/svg" width="74" height="42" viewBox="0 0 74 42">
    <g fill="none" fill-rule="evenodd">
        <path fill="#FFF" fill-opacity="0" d="M0 0H74V42H0z"/>
        <text fill="#000" fill-opacity=".7" font-family="OpenSans-Regular, Open Sans" font-size="13.2" letter-spacing=".55">
            <tspan x="2" y="25">Arsenal</tspan>
        </text>
        <text fill="#000" fill-opacity=".7" font-family="OpenSans-Regular, Open Sans" font-size="13.2" letter-spacing="-.65">
            <tspan x="51.7" y="25">Pay</tspan>
        </text>
        <path fill="#000" fill-opacity=".3" d="M45.652 11.585c.637.771.76 1.756.275 2.2-.486.444-1.397.179-2.035-.592-.637-.77-.76-1.756-.274-2.2.486-.443 1.396-.178 2.034.592zm8.581-.817c.486.884.428 1.876-.13 2.214-.557.338-1.403-.105-1.889-.99-.486-.883-.428-1.875.13-2.213.557-.338 1.403.104 1.89.989zm-4.361-1.663c.47.894.396 1.884-.167 2.212-.563.328-1.401-.13-1.872-1.024-.472-.893-.397-1.883.166-2.211.563-.328 1.402.13 1.873 1.023zm-8.143.237c.56.274.877.808.707 1.19-.17.384-.763.472-1.323.198-.56-.275-.877-.809-.707-1.192.17-.383.762-.471 1.323-.196zm14.894-.362c.31.563.278 1.19-.07 1.402-.35.212-.883-.073-1.192-.636-.309-.563-.277-1.19.071-1.402.349-.212.882.073 1.191.636zm-17.787-.747c.44.04.78.278.759.53-.021.254-.395.426-.835.385-.44-.04-.78-.278-.76-.53.022-.253.396-.426.836-.385zm18.992-.445c.22.403.23.831.021.958-.209.127-.557-.096-.778-.498-.221-.402-.23-.831-.021-.958.208-.127.557.096.778.498zM48.874 5.07c.48.41.664 1.007.411 1.336-.253.329-.848.263-1.328-.146-.481-.409-.666-1.007-.412-1.335.253-.329.848-.264 1.329.145zm-1.058-2.788c.343.292.498.69.346.886-.152.197-.553.12-.896-.172-.344-.292-.499-.689-.347-.886.152-.197.554-.12.897.172zM45.652 30.415c.637-.771.76-1.756.275-2.2-.486-.444-1.397-.179-2.035.592-.637.77-.76 1.756-.274 2.2.486.443 1.396.178 2.034-.592zm8.581.817c.486-.884.428-1.876-.13-2.214-.557-.338-1.403.105-1.889.99-.486.883-.428 1.875.13 2.213.557.338 1.403-.104 1.89-.989zm-4.361 1.663c.47-.894.396-1.884-.167-2.212-.563-.328-1.401.13-1.872 1.024-.472.893-.397 1.883.166 2.211.563.328 1.402-.13 1.873-1.023zm-8.143-.237c.56-.274.877-.808.707-1.19-.17-.384-.763-.472-1.323-.198-.56.275-.877.808-.707 1.192.17.383.762.471 1.323.196zm14.894.362c.31-.563.278-1.19-.07-1.402-.35-.212-.883.073-1.192.636-.309.563-.277 1.19.071 1.402.349.212.882-.073 1.191-.636zm-17.787.747c.44-.04.78-.278.759-.53-.021-.254-.395-.426-.835-.385-.44.04-.78.278-.76.53.022.253.396.426.836.385zm18.992.445c.22-.403.23-.831.021-.958-.209-.127-.557.096-.778.498-.221.402-.23.831-.021.958.208.127.557-.096.778-.498zm-8.954 2.719c.48-.41.664-1.007.411-1.336-.253-.329-.848-.263-1.328.146-.481.409-.666 1.007-.412 1.335.253.329.848.264 1.329-.145zm-1.058 2.788c.343-.292.498-.69.346-.886-.152-.197-.553-.12-.896.172-.344.292-.499.689-.347.886.152.197.554.12.897-.172z"/>
    </g>
</svg>
