<?xml version="1.0" encoding="UTF-8"?>
<svg width="74px" height="42px" viewBox="0 0 74 42" version="1.1" xmlns="http://www.w3.org/2000/svg" xmlns:xlink="http://www.w3.org/1999/xlink">
    <!-- Generator: Sketch 61.2 (89653) - https://sketch.com -->
    <title>constructor/assets/AP_logo-export</title>
    <desc>Created with Sketch.</desc>
    <g id="constructor/assets/AP_logo-export" stroke="none" stroke-width="1" fill="none" fill-rule="evenodd">
        <rect id="Rectangle" fill-opacity="0" fill="#FFFFFF" x="0" y="0" width="74" height="42"></rect>
        <path d="M66.8483884,17.9359376 L68.3952634,21.9642579 L68.4932322,22.2324473 C68.7755368,23.0140059 68.9534275,23.5884766 69.026904,23.9558594 L69.026904,23.9558594 L69.0784665,23.9558594 L69.102284,23.8663803 C69.1645551,23.6405594 69.2737058,23.2954834 69.4297361,22.8311524 C69.6080564,22.3004883 70.1913571,20.6687501 71.1796384,17.9359376 L71.1796384,17.9359376 L72.326904,17.9359376 L69.2911618,25.9796875 L69.1890315,26.2361075 C68.9116974,26.8970835 68.5944713,27.3755751 68.2373533,27.671582 C67.8355955,28.0045898 67.3425291,28.1710937 66.7581541,28.1710937 C66.4315916,28.1710937 66.1093259,28.1345703 65.7913572,28.0615234 L65.7913572,28.0615234 L65.7913572,27.2042968 L65.9738401,27.2381347 C66.1615598,27.2671386 66.36499,27.2816406 66.5841306,27.2816406 C67.3188962,27.2816406 67.843115,26.8691406 68.1567869,26.0441406 L68.1567869,26.0441406 L68.5499509,25.0386719 L65.7011228,17.9359376 L66.8483884,17.9359376 Z M20.1542966,17.8070314 C20.9148435,17.8070314 21.6582029,17.9617189 22.3843747,18.2710938 L22.3843747,18.2710938 L22.0041013,19.141211 L21.7413541,19.0384889 C21.1355619,18.8147828 20.5807615,18.7029298 20.0769529,18.7029298 C19.5699216,18.7029298 19.1874998,18.782422 18.9296873,18.9414063 C18.6718748,19.1003907 18.5429685,19.3195313 18.5429685,19.5988282 C18.5429685,19.7878907 18.5913084,19.9490235 18.6879881,20.0822266 C18.7846677,20.2154298 18.9404295,20.3421876 19.1552732,20.4625001 C19.370117,20.5828126 19.7826169,20.756836 20.3927732,20.9845704 C21.2306638,21.2896485 21.7967771,21.596875 22.091113,21.90625 C22.3854489,22.215625 22.5326169,22.6044922 22.5326169,23.0728516 C22.5326169,23.7302735 22.287695,24.2373047 21.7978513,24.5939453 C21.3080075,24.9505859 20.6205076,25.1289062 19.7353513,25.1289062 C18.7986326,25.1289062 18.0681638,24.9806641 17.5439451,24.6841797 L17.5439451,24.6841797 L17.5439451,23.6916016 L17.8031675,23.8136597 C18.0670225,23.9288696 18.3447752,24.0235352 18.6364256,24.0976563 C19.0252927,24.1964844 19.4001951,24.2458984 19.7611326,24.2458984 C20.3197263,24.2458984 20.7494138,24.1567383 21.0501951,23.978418 C21.3509763,23.8000977 21.5013669,23.5283203 21.5013669,23.163086 C21.5013669,22.888086 21.3821286,22.6528321 21.1436521,22.4573243 C20.9051755,22.2618164 20.4400388,22.0308594 19.7482419,21.7644532 C19.0908201,21.5195313 18.6235349,21.3057618 18.3463865,21.1231446 C18.0692381,20.9405274 17.8629881,20.7332032 17.7276365,20.5011719 C17.5922849,20.2691407 17.5246092,19.9919923 17.5246092,19.6697266 C17.5246092,19.0939454 17.7587889,18.6395509 18.2271482,18.3065431 C18.6955076,17.9735353 19.3378904,17.8070314 20.1542966,17.8070314 Z M27.5298825,17.8070314 C28.4150387,17.8070314 29.1154293,18.0981446 29.6310543,18.6803712 C30.1466793,19.2625977 30.4044918,20.0306641 30.4044918,20.9845704 L30.4044918,20.9845704 L30.4044918,21.6613282 L25.5382809,21.6613282 L25.5503659,21.9041231 C25.6035397,22.6145254 25.8089841,23.163086 26.1666989,23.5498047 C26.5641598,23.9794922 27.1238278,24.1943359 27.8457028,24.1943359 C28.6062496,24.1943359 29.3582028,24.0353516 30.1015621,23.7173828 L30.1015621,23.7173828 L30.1015621,24.6712891 L29.8217953,24.7850891 C29.5458553,24.8902283 29.2813961,24.9693848 29.0284176,25.0225586 C28.6911129,25.093457 28.283984,25.1289062 27.8070309,25.1289062 C26.7628903,25.1289062 25.9389645,24.8109375 25.3352536,24.175 C24.7315427,23.5390625 24.4296872,22.6560547 24.4296872,21.5259766 C24.4296872,20.3873048 24.7100583,19.4828126 25.2708005,18.8125001 C25.8315426,18.1421876 26.58457,17.8070314 27.5298825,17.8070314 Z M44.0857416,17.819922 C44.9279291,17.819922 45.5520502,18.006836 45.9581049,18.3806642 C46.3641596,18.7544923 46.5671869,19.3539063 46.5671869,20.1789063 L46.5671869,20.1789063 L46.5671869,25 L45.7744135,25 L45.5617182,23.9945313 L45.5101557,23.9945313 L45.359217,24.1754604 C45.0574711,24.5198242 44.7565145,24.7592215 44.4563471,24.8936523 C44.1061518,25.0504883 43.6689448,25.1289062 43.144726,25.1289062 C42.4443354,25.1289062 41.8954096,24.9484375 41.4979487,24.5875 C41.1004878,24.2265625 40.9017573,23.713086 40.9017573,23.0470703 C40.9017573,21.6205079 42.0425776,20.8728516 44.3242182,20.8041016 L44.3242182,20.8041016 L45.5230463,20.7654297 L45.5230463,20.3271485 L45.517457,20.126085 C45.4913736,19.6727982 45.3739984,19.3305421 45.1653314,19.0993165 C44.9268549,18.8350587 44.5455072,18.7029298 44.0212885,18.7029298 C43.4326166,18.7029298 42.766601,18.8833985 42.0232416,19.244336 L42.0232416,19.244336 L41.6945307,18.4257813 L41.9618098,18.2916383 C42.2353327,18.165149 42.5275873,18.0616212 42.8385737,17.9810548 C43.2532221,17.8736329 43.6689448,17.819922 44.0857416,17.819922 Z M62.7868651,17.819922 C63.6290526,17.819922 64.2531736,18.006836 64.6592283,18.3806642 C65.065283,18.7544923 65.2683103,19.3539063 65.2683103,20.1789063 L65.2683103,20.1789063 L65.2683103,25 L64.4755369,25 L64.2628416,23.9945313 L64.2112791,23.9945313 L64.0603404,24.1754604 C63.7585946,24.5198242 63.4576379,24.7592215 63.1574705,24.8936523 C62.8072752,25.0504883 62.3700682,25.1289062 61.8458495,25.1289062 C61.1454588,25.1289062 60.5965331,24.9484375 60.1990721,24.5875 C59.8016112,24.2265625 59.6028807,23.713086 59.6028807,23.0470703 C59.6028807,21.6205079 60.743701,20.8728516 63.0253416,20.8041016 L63.0253416,20.8041016 L64.2241697,20.7654297 L64.2241697,20.3271485 L64.2185804,20.126085 C64.1924971,19.6727982 64.0751219,19.3305421 63.8664549,19.0993165 C63.6279783,18.8350587 63.2466307,18.7029298 62.7224119,18.7029298 C62.1337401,18.7029298 61.4677245,18.8833985 60.7243651,19.244336 L60.7243651,19.244336 L60.3956542,18.4257813 L60.6629332,18.2916383 C60.9364562,18.165149 61.2287108,18.0616212 61.5396971,17.9810548 C61.9543455,17.8736329 62.3700682,17.819922 62.7868651,17.819922 Z M6.64707025,15.5382814 L10.3531249,25 L9.2187499,25 L8.04570304,22.0029297 L4.26874997,22.0029297 L3.10859373,25 L2,25 L5.72539057,15.5382814 L6.64707025,15.5382814 Z M15.2601561,17.8070314 C15.5738279,17.8070314 15.8552732,17.8328126 16.104492,17.8843751 L16.104492,17.8843751 L15.9562498,18.8769532 L15.7435545,18.8346559 C15.5373045,18.798401 15.3503904,18.7802735 15.1828123,18.7802735 C14.611328,18.7802735 14.1225584,19.0123048 13.7165037,19.4763673 C13.3104491,19.9404298 13.1074217,20.5183594 13.1074217,21.2101563 L13.1074217,21.2101563 L13.1074217,25 L12.0374999,25 L12.0374999,17.9359376 L12.9205077,17.9359376 L13.0429686,19.244336 L13.0945311,19.244336 L13.2101521,19.0537389 C13.447971,18.6854354 13.725251,18.3944755 14.041992,18.1808595 C14.4115233,17.9316407 14.8175779,17.8070314 15.2601561,17.8070314 Z M36.117187,17.8070314 C36.9679683,17.8070314 37.6082026,18.0122071 38.0378901,18.4225587 C38.4675776,18.8329102 38.6824214,19.4892579 38.6824214,20.3916016 L38.6824214,20.3916016 L38.6824214,25 L37.6124995,25 L37.6124995,20.4302735 L37.6076456,20.2437573 C37.5817583,19.7608098 37.4523216,19.3932944 37.2193355,19.141211 C36.9572261,18.8576173 36.5468745,18.7158204 35.9882808,18.7158204 C35.2492183,18.7158204 34.7078121,18.9156251 34.3640621,19.3152345 C34.0203121,19.7148438 33.8484371,20.3744141 33.8484371,21.2939454 L33.8484371,21.2939454 L33.8484371,25 L32.7785152,25 L32.7785152,17.9359376 L33.6486324,17.9359376 L33.8226558,18.9027345 L33.8742183,18.9027345 L33.9735287,18.7583726 C34.1829356,18.4792511 34.4570587,18.2577428 34.795898,18.0938478 C35.1912105,17.9026368 35.6316402,17.8070314 36.117187,17.8070314 Z M50.3914056,14.9710939 L50.3914056,25 L49.3214837,25 L49.3214837,14.9710939 L50.3914056,14.9710939 Z M55.4382324,15.5769533 L55.6776209,15.5802181 C57.872716,15.6411611 58.9702636,16.5553072 58.9702636,18.3226563 C58.9702636,19.2765626 58.6447753,20.010254 57.9937987,20.5237305 C57.3428222,21.0372071 56.4114745,21.2939454 55.1997558,21.2939454 L55.1997558,21.2939454 L54.0911621,21.2939454 L54.0911621,25 L52.995459,25 L52.995459,15.5769533 L55.4382324,15.5769533 Z M45.497265,21.5259766 L44.4273432,21.5710938 L44.1792309,21.5831788 C43.4562602,21.6286182 42.9255854,21.7567188 42.5872065,21.9674805 C42.2112299,22.2016602 42.0232416,22.5658203 42.0232416,23.059961 C42.0232416,23.4466797 42.1403315,23.7410156 42.3745112,23.9429688 C42.6086909,24.1449219 42.9363276,24.2458984 43.3574213,24.2458984 C44.0234369,24.2458984 44.5465815,24.0632813 44.9268549,23.6980469 C45.3071283,23.3328125 45.497265,22.8214844 45.497265,22.1640625 L45.497265,22.1640625 L45.497265,21.5259766 Z M64.1983885,21.5259766 L63.1284666,21.5710938 L62.8803543,21.5831788 C62.1573836,21.6286182 61.6267088,21.7567188 61.2883299,21.9674805 C60.9123534,22.2016602 60.7243651,22.5658203 60.7243651,23.059961 C60.7243651,23.4466797 60.8414549,23.7410156 61.0756346,23.9429688 C61.3098143,24.1449219 61.637451,24.2458984 62.0585448,24.2458984 C62.7245604,24.2458984 63.2477049,24.0632813 63.6279783,23.6980469 C64.0082518,23.3328125 64.1983885,22.8214844 64.1983885,22.1640625 L64.1983885,22.1640625 L64.1983885,21.5259766 Z M6.17011713,16.7371095 C6.07558588,17.1496095 5.94023432,17.6029298 5.76406245,18.0970704 L5.76406245,18.0970704 L4.65546871,21.0167969 L7.70410148,21.0167969 L6.60839837,18.0970704 L6.52280462,17.865297 C6.40799212,17.5428595 6.29042963,17.166797 6.17011713,16.7371095 Z M27.5169918,18.7029298 C26.9498044,18.7029298 26.4975583,18.8876954 26.1602536,19.2572266 C25.8229489,19.6267579 25.6242184,20.138086 25.5640622,20.791211 L25.5640622,20.791211 L29.2572262,20.791211 C29.2572262,20.1166016 29.1068356,19.5999024 28.8060543,19.2411134 C28.5052731,18.8823243 28.0755856,18.7029298 27.5169918,18.7029298 Z M55.3157714,16.5244142 L54.0911621,16.5244142 L54.0911621,20.3529298 L55.0772949,20.3529298 C56.0483886,20.3529298 56.7509277,20.1960938 57.184912,19.8824219 C57.6188964,19.5687501 57.8358886,19.0660157 57.8358886,18.3742188 C57.8358886,17.751172 57.631787,17.2871095 57.2235839,16.9820314 C56.8153808,16.6769532 56.1794433,16.5244142 55.3157714,16.5244142 L55.3157714,16.5244142 Z" id="Combined-Shape" fill-opacity="0.7" fill="#000000" fill-rule="nonzero"></path>
        <path d="M47.2655684,39.0047469 C47.6088974,38.7125588 48.0103707,38.6357449 48.1623461,38.832802 C48.3143214,39.0298591 48.1592697,39.4266323 47.8159407,39.7188204 C47.4726118,40.0110085 47.0711384,40.0878223 46.919163,39.8907652 C46.7671877,39.6937081 46.9222395,39.296935 47.2655684,39.0047469 Z M47.9565333,35.7407486 C48.4370708,35.3315671 49.0320512,35.2662753 49.2852409,35.5950977 C49.5384306,35.9236247 49.3541528,36.5215911 48.8736154,36.9307726 C48.3927703,37.3396587 47.7977898,37.4049505 47.5446001,37.0761281 C47.2914104,36.7476011 47.4756882,36.1496347 47.9565333,35.7407486 Z M57.0707478,33.7521559 C57.291635,33.3503603 57.6401939,33.1270092 57.8493907,33.2540475 C58.05828,33.3807904 58.048743,33.8094709 57.8278558,34.2115619 C57.6069685,34.6136529 57.2584097,34.8367085 57.0495204,34.7099657 C56.8403236,34.5832228 56.8498605,34.1542469 57.0707478,33.7521559 Z M47.8325534,31.7068391 C48.3038616,30.8134348 49.1421872,30.3552105 49.7051728,30.6834421 C50.2684661,31.0113782 50.3429156,32.0013907 49.8716074,32.894795 C49.4006068,33.7879039 48.5619736,34.2461281 47.9989879,33.918192 C47.4360023,33.5902559 47.3612452,32.6002434 47.8325534,31.7068391 Z M38.759563,32.8519565 C39.1997993,32.8114815 39.5735849,32.9834264 39.5945045,33.2363213 C39.6157319,33.4889207 39.2760946,33.7267482 38.8358583,33.7672232 C38.395622,33.8076982 38.0218365,33.6354579 38.0009168,33.3828585 C37.9799971,33.1299636 38.3196343,32.8924315 38.759563,32.8519565 Z M55.3611788,32.2542856 C55.6703595,31.6911809 56.2038114,31.4063787 56.5520626,31.6179123 C56.9006215,31.8291504 56.9323087,32.456956 56.623128,33.0197653 C56.3139474,33.5825745 55.7808031,33.8676721 55.4322442,33.6561386 C55.0836853,33.444605 55.0519982,32.8170948 55.3611788,32.2542856 Z M41.1127199,31.2704773 C41.6732444,30.9960154 42.2654561,31.0840559 42.4355823,31.4672389 C42.6057086,31.8504219 42.2891445,32.3836874 41.72862,32.6584447 C41.1680955,32.9332019 40.5758839,32.8451614 40.4057576,32.4619784 C40.2356314,32.0785 40.5521954,31.5452345 41.1127199,31.2704773 Z M52.2139968,30.0071847 C52.7000718,29.1226435 53.5460885,28.679782 54.1035366,29.0180585 C54.6609847,29.3563349 54.7191291,30.3475292 54.233054,31.2320703 C53.7472867,32.1166115 52.90127,32.559473 52.3438219,32.2211965 C51.7860662,31.8829201 51.7282294,30.8914304 52.2139968,30.0071847 Z M43.8922692,28.8071158 C44.530012,28.0363182 45.4406335,27.7713104 45.9267086,28.2150582 C46.412476,28.6591014 46.289419,29.643796 45.6519839,30.4145936 C45.0142411,31.1853911 44.1036196,31.450399 43.6175445,31.0066512 C43.1317771,30.562608 43.2548341,29.5779133 43.8922692,28.8071158 Z M45.6519839,11.5854064 C46.289419,12.356204 46.412476,13.3408986 45.9267086,13.7849418 C45.4406335,14.2286896 44.530012,13.9636818 43.8922692,13.1928842 C43.2548341,12.4220867 43.1317771,11.437392 43.6175445,10.9933488 C44.1036196,10.549601 45.0142411,10.8146089 45.6519839,11.5854064 Z M54.233054,10.7679297 C54.7191291,11.6524708 54.6609847,12.6436651 54.1035366,12.9819415 C53.5460885,13.320218 52.7000718,12.8773565 52.2139968,11.9928153 C51.7282294,11.1085696 51.7860662,10.1170799 52.3438219,9.77880347 C52.90127,9.44052704 53.7472867,9.8833885 54.233054,10.7679297 Z M49.8716074,9.10520499 C50.3429156,9.99860929 50.2684661,10.9886218 49.7051728,11.3165579 C49.1421872,11.6447895 48.3038616,11.1865652 47.8325534,10.2931609 C47.3612452,9.39975661 47.4360023,8.4097441 47.9989879,8.08180799 C48.5619736,7.75387189 49.4006068,8.21209612 49.8716074,9.10520499 Z M41.72862,9.34155533 C42.2891445,9.61631261 42.6057086,10.1495781 42.4355823,10.5327611 C42.2654561,10.9159441 41.6732444,11.0039846 41.1127199,10.7295227 C40.5521954,10.4547655 40.2356314,9.92149999 40.4057576,9.53802156 C40.5758839,9.15483856 41.1680955,9.06679806 41.72862,9.34155533 Z M56.623128,8.98023474 C56.9323087,9.543044 56.9006215,10.1708496 56.5520626,10.3820877 C56.2038114,10.5936213 55.6703595,10.3088191 55.3611788,9.74571442 C55.0519982,9.18290516 55.0836853,8.555395 55.4322442,8.34386144 C55.7808031,8.13232788 56.3139474,8.41742548 56.623128,8.98023474 Z M38.8358583,8.23277677 C39.2760946,8.27325177 39.6157319,8.51107931 39.5945045,8.76367874 C39.5735849,9.01657361 39.1997993,9.18851848 38.759563,9.14804349 C38.3196343,9.10756849 37.9799971,8.87003639 38.0009168,8.61714152 C38.0218365,8.36454209 38.395622,8.19230178 38.8358583,8.23277677 Z M57.8278558,7.78843812 C58.048743,8.19052915 58.05828,8.61920959 57.8493907,8.74595246 C57.6401939,8.87299077 57.291635,8.6496397 57.0707478,8.24784411 C56.8498605,7.84575308 56.8403236,7.41677721 57.0495204,7.29003433 C57.2584097,7.16329146 57.6069685,7.3863471 57.8278558,7.78843812 Z M48.8736154,5.0692274 C49.3541528,5.47840893 49.5384306,6.07637531 49.2852409,6.40490229 C49.0320512,6.73372471 48.4370708,6.66843292 47.9565333,6.25925139 C47.4756882,5.85036529 47.2914104,5.25239892 47.5446001,4.92387193 C47.7977898,4.59504952 48.3927703,4.6603413 48.8736154,5.0692274 Z M47.8159407,2.28117963 C48.1592697,2.57336775 48.3143214,2.97014089 48.1623461,3.16719799 C48.0103707,3.36425509 47.6088974,3.28744123 47.2655684,2.99525311 C46.9222395,2.703065 46.7671877,2.30629186 46.919163,2.10923476 C47.0711384,1.91217766 47.4726118,1.98899152 47.8159407,2.28117963 Z" id="Combined-Shape" fill-opacity="0.300000012" fill="#000000"></path>
    </g>
</svg>