<svg xmlns="http://www.w3.org/2000/svg" width="48" height="53" viewBox="0 0 48 53">
    <path fill="#50BD5C" fill-rule="evenodd" d="M24 7c12.15 0 22 9.85 22 22s-9.85 22-22 22S2 41.15 2 29 11.85 7 24 7zm0 2C12.954 9 4 17.954 4 29s8.954 20 20 20 20-8.954 20-20S35.046 9 24 9zm10.139 8.132l-.53 2.846-5.32 6.311c.457.768.711 1.695.711 2.729C29 31.92 26.942 34 24.018 34c-.7 0-1.353-.12-1.941-.34l-2.214 2.626c-.497.59-1.377.667-1.968.172l-.008-.006c-.592-.495-.671-1.376-.176-1.968l.004-.005 2.145-2.545c-.55-.802-.86-1.798-.86-2.916C19 26.078 21.094 24 24.018 24c.792 0 1.521.153 2.163.434l5.273-6.256 2.685-1.046zM24.01 26C22.256 26 21 27.247 21 29.01c0 1.743 1.256 2.99 3.01 2.99 1.755 0 2.99-1.247 2.99-2.99 0-1.763-1.235-3.01-2.99-3.01zM29 2c.552 0 1 .448 1 1s-.448 1-1 1h-4v3h-2V4h-4c-.552 0-1-.448-1-1s.448-1 1-1h10z"/>
</svg>
