<svg xmlns="http://www.w3.org/2000/svg" xmlns:xlink="http://www.w3.org/1999/xlink" width="48" height="38" viewBox="0 0 48 38">
    <defs>
        <path id="prefix__a" d="M8 2c4.418 0 8 3.582 8 8s-3.582 8-8 8-8-3.582-8-8 3.582-8 8-8zm0 1c-3.866 0-7 3.134-7 7s3.134 7 7 7 7-3.134 7-7-3.134-7-7-7zm3.483 2.432l-.1 1.03-1.691 2.415c.197.315.308.7.308 1.13C10 11.168 9.177 12 8.007 12c-.163 0-.319-.016-.468-.047l-.515.734c-.158.226-.47.281-.696.123-.226-.158-.281-.47-.123-.696l.427-.612C6.236 11.147 6 10.623 6 10.007 6 8.832 6.838 8 8.007 8c.346 0 .662.073.935.206l1.622-2.318.919-.456zM8.003 9C7.42 9 7 9.416 7 10.004c0 .58.419.996 1.004.996.584 0 .996-.416.996-.996C9 9.416 8.588 9 8.004 9zM10.5 0c.276 0 .5.224.5.5s-.224.5-.5.5h-2v1h-1V1h-2C5.224 1 5 .776 5 .5s.224-.5.5-.5h5z"/>
    </defs>
    <g fill="none" fill-rule="evenodd" transform="translate(16 10)">
        <mask id="prefix__b" fill="#fff">
            <use xlink:href="#prefix__a"/>
        </mask>
        <use fill="#FFF" fill-opacity="0" xlink:href="#prefix__a"/>
        <g fill="#327EF9" mask="url(#prefix__b)">
            <path d="M0 0H48V38H0z" transform="translate(-16 -10)"/>
        </g>
    </g>
</svg>
