<svg xmlns="http://www.w3.org/2000/svg" width="62" height="46" viewBox="0 0 62 46">
    <path fill="#AF53FF" fill-rule="evenodd" d="M56.154 2c1.337 0 1.822.14 2.311.4.49.262.873.646 1.134 1.135.262.489.401.974.401 2.31v25.31c0 1.336-.14 1.821-.4 2.31-.262.49-.646.873-1.135 1.134-.489.262-.974.401-2.31.401H25.621c-1.333 5.176-6.03 9-11.622 9-6.627 0-12-5.373-12-12 0-4.843 2.869-9.016 7-10.912V5.846c0-1.337.14-1.822.4-2.311.262-.49.646-.873 1.135-1.134.489-.262.974-.401 2.31-.401h43.31zM14 22C8.477 22 4 26.477 4 32s4.477 10 10 10 10-4.477 10-10-4.477-10-10-10zm5.92 6.707c.39.39.39 1.021 0 1.41l-.001.002-7.09 7.053-4.222-4.222c-.39-.39-.39-1.024 0-1.414.39-.391 1.024-.391 1.414 0l2.829 2.828 5.657-5.657c.39-.39 1.023-.39 1.414 0zM58 15H11v5.378c.959-.247 1.964-.378 3-.378 6.627 0 12 5.373 12 12 0 .337-.014.67-.041 1h30.118c.669 0 .911-.07 1.156-.2.244-.131.436-.323.567-.567.118-.223.187-.443.198-.984l.002-.172V15zm-4 13c.552 0 1 .448 1 1s-.448 1-1 1h-6c-.552 0-1-.448-1-1s.448-1 1-1h6zm2.077-24H12.923c-.669 0-.911.07-1.156.2-.244.131-.436.323-.567.567-.118.223-.187.443-.198.984L11 5.923V10h47V5.923c0-.669-.07-.911-.2-1.156-.131-.244-.323-.436-.567-.567-.245-.13-.487-.2-1.156-.2z"/>
</svg>
