<svg xmlns="http://www.w3.org/2000/svg" xmlns:xlink="http://www.w3.org/1999/xlink" width="48" height="38" viewBox="0 0 48 38">
    <defs>
        <path id="prefix__a" d="M12 0c1.055 0 1.918.809 1.995 1.85L14 2c0 1.105-.887 2-2 2h-2v2h3.005c.55 0 1.192.394 1.444.898L16.5 11h.507c.509 0 .929.386.986.883L18 12v1.995C18 15.106 17.107 16 16.005 16H1.995C.893 16 0 15.102 0 13.995V12c0-.556.445-1 .993-1H1.5l2.05-4.102C3.8 6.402 4.457 6 4.996 6H8V4H6c-1.055 0-1.918-.809-1.995-1.85L4 2c0-1.105.887-2 2-2h6zm5 12H1v2c0 .552.448 1 1 1h14c.552 0 1-.448 1-1v-2zm-4.5 1c.276 0 .5.224.5.5s-.224.5-.5.5h-7c-.276 0-.5-.224-.5-.5s.224-.5.5-.5h7zm.9-6H4.6l-2 4h12.8l-2-4zM12 1H6c-.552 0-1 .448-1 1s.448 1 1 1h6c.552 0 1-.448 1-1s-.448-1-1-1z"/>
    </defs>
    <g fill="none" fill-rule="evenodd" transform="translate(15 11)">
        <mask id="prefix__b" fill="#fff">
            <use xlink:href="#prefix__a"/>
        </mask>
        <use fill="#C43030" fill-opacity="0" xlink:href="#prefix__a"/>
        <g fill="#327EF9" mask="url(#prefix__b)">
            <path d="M0 0H48V38H0z" transform="translate(-14 -11)"/>
        </g>
    </g>
</svg>
