<svg xmlns="http://www.w3.org/2000/svg" xmlns:xlink="http://www.w3.org/1999/xlink" width="48" height="38" viewBox="0 0 48 38">
    <defs>
        <path id="prefix__a" d="M5.854 11.354c.195.195.195.511 0 .707l-3.89 3.888 3.89 3.89c.195.195.195.512 0 .707-.196.195-.512.195-.708 0L.55 15.95l4.596-4.596c.196-.196.512-.196.708 0zM16.5 15.5c.276 0 .5.224.5.5s-.224.5-.5.5h-9c-.276 0-.5-.224-.5-.5s.224-.5.5-.5h9zm-3.646-5.954c-.196.195-.512.195-.708 0-.195-.195-.195-.512 0-.707l3.89-3.89-3.89-3.888c-.173-.174-.192-.443-.057-.638l.057-.07c.196-.195.512-.195.708 0L17.45 4.95zM10.5 4.5c.276 0 .5.224.5.5s-.224.5-.5.5h-9c-.276 0-.5-.224-.5-.5s.224-.5.5-.5h9z"/>
    </defs>
    <g fill="none" fill-rule="evenodd" transform="translate(15 8.5)">
        <mask id="prefix__b" fill="#fff">
            <use xlink:href="#prefix__a"/>
        </mask>
        <use fill="#C83C3C" fill-opacity="0" xlink:href="#prefix__a"/>
        <g fill="#327EF9" mask="url(#prefix__b)">
            <path d="M0 0H48V38H0z" transform="translate(-15 -8.5)"/>
        </g>
    </g>
</svg>
