<svg xmlns="http://www.w3.org/2000/svg" width="210" height="60" viewBox="0 0 210 60">
    <g fill="none">
        <path fill="#231F20" d="M80.97 18.926c-1.642 0-2.974 1.331-2.974 2.972 0 1.644 1.332 2.974 2.974 2.974 1.643 0 2.974-1.33 2.974-2.974 0-1.64-1.331-2.972-2.974-2.972zm121.012-2.182c1.95 0 3.376 1.091 4.311 2.182v-5.27c-1.532-1.039-3.377-1.454-4.982-1.454-4.93 0-9.213 3.53-9.213 9.602 0 5.815 3.893 9.605 9.29 9.605 1.557 0 3.269-.236 4.905-1.35V24.89c-.935.963-2.412 1.976-4.31 1.976-2.905 0-4.645-2.153-4.645-4.906 0-2.985 1.843-5.216 4.644-5.216zm-9.327-4.022h-5.97l-5.477 7.629v-7.63h-5.085l.002 18.168h5.083v-7.814l5.267 7.814h6.363l-7.087-9.37 6.904-8.797zm-31.553 10.9v-10.9h-4.905v18.167h4.983l7.034-10.901v10.901h4.905V12.722h-4.984l-7.033 10.9zm-14.74-2.726h-1.45v-4.177h1.45c2.181 0 2.491 1.166 2.491 2.075 0 .779-.232 2.102-2.49 2.102zm1.116-8.174h-7.655v18.167h5.09V24.89h2.565c5.14 0 6.62-3.577 6.62-6.096 0-2.492-1.454-6.072-6.62-6.072zm-22.81 4.358h3.994v13.81h5.089V17.08h3.995v-4.358h-13.078v4.358zm-14.095 6.543V12.722h-4.903v18.167h4.984l7.03-10.901v10.901h4.906V12.722h-4.982l-7.035 10.9zm-15.155 3.63h-2.18V23.44h2.18c1.61 0 2.545.468 2.545 1.896 0 1.452-.96 1.917-2.545 1.917zm.494-7.447H93.24V17.08h8.33v-4.358H88.153v18.167h7.76c1.321 0 7.136.05 7.136-5.631 0-5.478-5.761-5.452-7.137-5.452zm-36.23 1.998c0 5.815 3.893 9.605 9.291 9.605 1.559 0 3.271-.236 4.907-1.35V24.89c-.937.963-2.416 1.976-4.31 1.976-2.908 0-4.645-2.153-4.645-4.906 0-2.985 1.842-5.216 4.645-5.216 1.946 0 3.373 1.091 4.31 2.182v-5.27c-1.535-1.039-3.376-1.454-4.985-1.454-4.931 0-9.212 3.53-9.212 9.602zM49.033 16.9h2.78v13.99h4.697V12.721h-7.476V16.9z" transform="translate(2 10)"/>
        <path fill="#D91935" d="M19.973 0c-1.488 0-2.935.167-4.33.477v19.511c0 2.391 1.95 4.341 4.342 4.341 2.39 0 4.339-1.95 4.339-4.34 0-2.296-1.795-4.181-4.05-4.331v-3.475c4.168.151 7.523 3.6 7.523 7.807 0 4.302-3.51 7.813-7.812 7.813-4.305 0-7.813-3.511-7.813-7.815V1.581c-.494.21-.975.442-1.448.691v17.716c.001 5.1 4.161 9.258 9.26 9.258 5.1 0 9.26-4.158 9.26-9.256 0-5.004-4.003-9.101-8.97-9.255V7.26c6.879.156 12.44 5.814 12.44 12.729 0 7.012-5.718 12.73-12.73 12.73-7.012 0-12.732-5.718-12.732-12.732V4.576C2.824 8.238 0 13.776 0 19.973 0 31.004 8.942 39.95 19.974 39.95c11.033 0 19.973-8.945 19.973-19.976C39.947 8.943 31.007 0 19.973 0" transform="translate(2 10)"/>
    </g>
</svg>
