<svg xmlns="http://www.w3.org/2000/svg" width="188" height="60" viewBox="0 0 188 60">
    <g fill="none" fill-rule="evenodd">
        <path fill="#945C87" d="M.52 3.61C1.377 1.56 3.52.093 5.753.093h50.612c1.469-.03 2.938.52 4.009 1.5 1.224 1.1 1.928 2.753 1.897 4.406v19.4c-.03 2.907-2.57 5.539-5.477 5.6-6.151.03-12.302 0-18.452 0 .826 2.05 1.652 4.07 2.478 6.12-3.672-2.02-7.282-4.1-10.985-6.09-8.078-.06-16.187 0-24.296-.03-2.907-.092-5.447-2.693-5.478-5.6-.03-6.334 0-12.668-.03-18.972 0-.949.091-1.928.49-2.815" transform="translate(2 16)"/>
        <path fill="#FFF" d="M25.245 4.07c.918-.98 2.693-.673 3.397.459.367.581.397 1.377.091 1.989-1.285 2.57-1.836 5.416-2.325 8.2-.582 3.642-1.071 7.345-.888 11.047.062.949-.397 2.081-1.407 2.326-.949.214-1.836-.429-2.448-1.102-2.754-2.968-4.315-6.793-5.447-10.618-1.132 2.234-2.264 4.498-3.366 6.732-.765 1.53-1.591 3.09-2.815 4.315-.52.52-1.408.979-2.081.459-1.01-.888-1.255-2.295-1.683-3.489-1.622-5.6-2.54-11.383-3.488-17.136-.215-.948.183-2.111 1.132-2.478.765-.276 1.775-.337 2.417.244.46.398.582 1.04.673 1.622.674 4.468 1.439 8.905 2.54 13.28 1.836-3.488 3.672-6.976 5.508-10.495.276-.52.612-1.04 1.102-1.347.673-.428 1.652-.397 2.234.215.459.49.642 1.193.765 1.836.55 2.876 1.285 5.752 2.356 8.476.459-4.131 1.04-8.323 2.54-12.21.336-.826.642-1.652 1.193-2.325m10.373 2.234c1.99-.245 4.131.428 5.478 1.927 1.101 1.255 1.713 2.877 1.928 4.499.336 2.784-.184 5.722-1.53 8.2-.765 1.408-1.745 2.785-3.152 3.611-2.05 1.255-4.804 1.102-6.793-.214-1.592-1.102-2.479-2.938-2.846-4.774-.735-4.192.52-8.843 3.672-11.75.918-.826 2.05-1.346 3.243-1.5m.398 4.285c-.948.306-1.56 1.193-2.08 1.989-1.286 2.08-1.653 4.804-.613 7.038.276.581.704 1.224 1.408 1.346.734.122 1.408-.306 1.928-.765 1.163-1.01 1.744-2.51 2.05-4.009.306-1.683.153-3.55-.826-5.018-.398-.55-1.194-.796-1.867-.581M51.5 6.304c1.928-.245 4.039.367 5.385 1.805 1.224 1.316 1.867 3.06 2.05 4.835.276 2.693-.214 5.508-1.499 7.895-.765 1.438-1.775 2.845-3.243 3.702-1.959 1.194-4.59 1.071-6.549-.092-1.316-.795-2.203-2.142-2.723-3.58-1.377-4.376-.214-9.516 2.968-12.821 1.04-.918 2.295-1.591 3.61-1.744m.43 4.284c-1.041.367-1.653 1.377-2.204 2.264-1.163 2.05-1.469 4.712-.398 6.885.276.612.796 1.193 1.5 1.224.765.03 1.438-.459 1.989-.98 1.193-1.162 1.713-2.814 1.897-4.436.183-1.5-.061-3.121-.949-4.407-.367-.52-1.163-.765-1.836-.55" transform="translate(2 16)"/>
        <path fill="#000" fill-rule="nonzero" d="M72.736 6.885c1.683-.367 3.458-.337 5.141.061v4.131c-1.377-.336-2.938-.642-4.253 0-1.592.796-2.479 2.601-2.479 4.315-.092 1.713.49 3.641 2.02 4.62 1.407.918 3.213.735 4.743.306v4.131c-2.05.582-4.284.52-6.273-.214-2.387-.887-4.284-2.968-5.019-5.416-.55-1.867-.612-3.856-.183-5.753.703-3.03 3.274-5.508 6.303-6.181m12.424-.214c2.08-.245 4.345.092 6.028 1.407 1.622 1.255 2.417 3.305 2.723 5.264.276 2.172.215 4.437-.459 6.517-.581 1.775-1.774 3.428-3.488 4.254-1.744.826-3.794.887-5.661.459-1.714-.398-3.244-1.53-4.1-3.09-1.194-2.082-1.408-4.56-1.316-6.916.092-2.02.612-4.131 1.958-5.692 1.102-1.255 2.693-2.02 4.315-2.203m.642 3.947c-.887.214-1.407 1.102-1.621 1.928-.429 1.652-.368 3.366-.245 5.049.122.918.214 1.897.857 2.632.856.979 2.6.856 3.366-.153.52-.643.673-1.47.765-2.265.183-1.407.214-2.846 0-4.253-.153-.857-.398-1.744-1.01-2.387-.551-.55-1.377-.734-2.112-.55m81.61-3.673c1.775-.459 3.642-.398 5.417-.03.03 1.377 0 2.754.03 4.161-1.346-.336-2.845-.642-4.161-.061-1.53.704-2.448 2.326-2.57 3.947-.184 1.836.305 3.917 1.927 4.988 1.408.98 3.244.796 4.804.337-.03 1.377.031 2.784-.03 4.161-2.173.551-4.56.49-6.61-.397-2.264-.98-4.039-3.06-4.682-5.447-.49-1.836-.55-3.795-.091-5.661.673-2.877 3.09-5.233 5.967-5.998m-70.778.123h5.906c.703 3.182 1.377 6.395 1.989 9.608.55-3.244 1.315-6.426 2.08-9.608h6.06c.795 5.783 1.56 11.566 2.325 17.32h-4.62c-.43-3.948-.796-7.926-1.255-11.874-.949 3.948-1.928 7.926-2.877 11.873h-3.152c-1.01-3.947-1.989-7.925-3.029-11.903-.398 3.947-.796 7.925-1.193 11.903h-4.437c.734-5.753 1.468-11.536 2.203-17.32m21.175 0h5.906c.704 3.183 1.377 6.396 1.989 9.609.581-3.213 1.316-6.426 2.08-9.608h6.029c.795 5.783 1.56 11.566 2.325 17.32h-4.62c-.429-3.948-.826-7.926-1.255-11.874-.948 3.948-1.897 7.926-2.876 11.873h-3.152c-1.01-3.978-2.02-7.925-3.03-11.903-.397 3.978-.795 7.925-1.193 11.903h-4.437c.765-5.753 1.5-11.536 2.234-17.32m19.676.062c3.152-.061 6.334 0 9.486-.03v3.702c-1.591.03-3.183 0-4.774 0v3.182h4.131v3.58h-4.13v3.183h4.803v3.702h-9.486c-.03-5.783.031-11.536-.03-17.32m10.832-.06c1.99 0 3.948-.031 5.937 0 1.866.06 3.855.52 5.232 1.836 1.255 1.162 1.683 3.09 1.194 4.712-.398 1.316-1.377 2.387-2.601 2.968 1.224 2.601 2.478 5.202 3.733 7.803h-4.927c-1.285-2.662-2.54-5.324-3.855-7.956-.031 2.662 0 5.325 0 7.956h-4.682c-.03-5.753-.03-11.536-.03-17.32M153 10.405v4.131c.857-.061 1.775-.092 2.479-.612.826-.612.734-1.867.214-2.662-.643-.765-1.775-.765-2.693-.857m21.175-3.305h9.456v3.703h-4.805v3.182h4.131v3.58h-4.13v3.183h4.834v3.702h-9.486c-.03-5.814 0-11.597 0-17.35" transform="translate(2 16)"/>
    </g>
</svg>
