<svg xmlns="http://www.w3.org/2000/svg" width="172" height="60" viewBox="0 0 172 60">
    <g>
        <path d="M23.701 20.055L23.701 35.727 20.778 35.727 20.778 18.956z" transform="translate(2 7)"/>
        <path d="M12.026 18.594c0-4.007 2.184-6.192 4.745-6.192 2.56 0 2.923.37 5.83 1.823 2.908 1.454 3.646 1.823 5.107 1.823 1.461 0 2.185-1.107 2.185-3.284h2.546c.369 4.369-2.185 6.192-4.746 6.192-2.56 0-3.284-.37-5.83-1.823-2.546-1.454-3.284-1.823-4.745-1.823-1.461 0-2.185 1.107-2.546 3.646l-2.546-.362z" transform="translate(2 7)"/>
        <path d="M22.601 45.202C10.12 45.202 0 35.084 0 22.602 0 10.118 10.119 0 22.601 0c12.483 0 22.601 10.119 22.601 22.601-.014 12.477-10.124 22.587-22.6 22.601zm0-43.726c-8.55 0-16.259 5.15-19.53 13.05-3.273 7.9-1.464 16.992 4.582 23.038 6.046 6.046 15.139 7.855 23.038 4.583 7.9-3.272 13.05-10.98 13.05-19.531-.008-11.672-9.468-21.132-21.14-21.14zM59.542 19.118L59.542 30.133 58.173 30.133 58.173 19.118 55.184 19.118 55.184 17.826 62.531 17.826 62.531 19.118zM64.944 18.634c.382-.001.728.228.875.581.148.353.068.76-.202 1.03-.27.272-.677.353-1.03.207s-.584-.49-.584-.873c.002-.52.422-.94.941-.945zm.664 3.842v7.657H64.28v-7.657h1.328zM69.686 16.679L69.686 30.133 68.357 30.133 68.357 16.679zM78.302 16.679h1.328v13.454h-1.328v-1.07c-.618.823-1.59 1.303-2.62 1.29-1.937 0-3.727-1.364-3.727-4.058s1.771-4.004 3.727-4.004c1.028-.026 2.005.449 2.62 1.273V16.68zm-4.982 9.616c0 1.642.923 2.878 2.51 2.878 1.586 0 2.546-1.347 2.546-2.86 0-1.974-1.366-2.84-2.547-2.84-1.291 0-2.509.958-2.509 2.822zM88.246 22.476h1.329v7.657h-1.329v-1.07c-.617.823-1.59 1.303-2.62 1.29-1.937 0-3.726-1.364-3.726-4.058s1.77-4.004 3.726-4.004c1.029-.026 2.006.449 2.62 1.273v-1.088zm-4.981 3.819c0 1.642.922 2.878 2.509 2.878 1.587 0 2.546-1.347 2.546-2.86 0-1.974-1.365-2.84-2.546-2.84-1.31 0-2.51.958-2.51 2.822zM99.427 17.826c1.236 0 2.27.144 3.1.868.736.676 1.14 1.64 1.107 2.638 0 1.734-1.089 3.45-3.893 3.45H98.56v5.35h-1.365V17.827h2.232zm-.867 5.665h1.107c1.623 0 2.601-.812 2.601-2.214 0-1.956-1.826-2.14-2.712-2.14h-.996v4.354zM106.844 26.937c0 .535 0 1.162.369 1.642.349.373.836.584 1.347.584.51 0 .998-.211 1.347-.584.369-.48.369-1.107.369-1.642v-4.461h1.328v4.612c0 .941-.092 1.642-.701 2.307-1.3 1.28-3.386 1.28-4.686 0-.61-.665-.701-1.366-.701-2.307v-4.612h1.328v4.461zM115.681 30.133h-1.328V16.679h1.328v6.867c.632-.802 1.6-1.265 2.62-1.255 2.399 0 3.727 1.993 3.727 4.06 0 2.066-1.347 4.003-3.671 4.003-1.048.026-2.044-.455-2.676-1.292v1.07zm4.982-3.783c0-1.882-1.273-2.878-2.51-2.878-1.235 0-2.545 1.015-2.545 2.86 0 1.568.996 2.841 2.564 2.841s2.491-1.291 2.491-2.823zM125.626 16.679L125.626 30.133 124.298 30.133 124.298 16.679zM129.04 18.634c.382-.001.727.228.875.581.147.353.067.76-.203 1.03-.27.272-.676.353-1.03.207-.353-.146-.584-.49-.584-.873.002-.52.422-.94.941-.945zm.663 3.842v7.657h-1.328v-7.657h1.328zM135.607 24.247c-.163-.454-.588-.761-1.07-.775-.243-.023-.485.061-.662.23-.177.17-.272.407-.26.652 0 .553.369.738 1.236 1.107 1.107.461 1.624.812 1.919 1.18.284.348.428.789.406 1.237 0 1.605-1.163 2.51-2.639 2.51-1.23.022-2.324-.778-2.675-1.957l1.144-.48c.148.407.59 1.255 1.55 1.255.332.019.656-.102.894-.333.239-.232.37-.552.36-.884 0-.738-.516-.96-1.236-1.273-.922-.406-1.513-.702-1.863-1.107-.25-.32-.375-.72-.35-1.126 0-1.347.94-2.14 2.232-2.14.92-.021 1.758.53 2.103 1.384l-1.089.52zM139.187 16.679h1.328v6.682c.52-.686 1.335-1.083 2.196-1.07.861-.038 1.685.357 2.195 1.052.388.572.443 1.2.443 2.048v4.742h-1.328v-4.705c.04-.493-.083-.986-.35-1.402-.305-.376-.773-.582-1.255-.554-.516-.021-1.013.197-1.347.59-.517.61-.554 1.513-.554 2.067v4.004h-1.328V16.679zM148.762 18.634c.383-.001.728.228.876.581.147.353.067.76-.203 1.03-.27.272-.676.353-1.03.207-.353-.146-.584-.49-.584-.873.002-.52.422-.94.941-.945zm.683 3.842v7.657h-1.328v-7.657h1.328zM152.176 22.476h1.328v.885c.52-.686 1.335-1.083 2.196-1.07.861-.038 1.685.357 2.195 1.052.388.572.443 1.2.443 2.048v4.742h-1.329v-4.705c.041-.493-.082-.986-.35-1.402-.305-.376-.772-.582-1.255-.554-.516-.021-1.013.197-1.347.59-.516.61-.553 1.513-.553 2.067v4.004h-1.328v-7.657zM166.954 22.476h1.328v7.472c0 .83 0 2.011-.738 3.007-.735.936-1.873 1.464-3.062 1.421-1.012.034-1.995-.338-2.73-1.033-.65-.658-1.01-1.548-.997-2.472h1.31c-.002.582.208 1.146.59 1.586.478.504 1.152.774 1.845.738.827.065 1.616-.351 2.03-1.07.325-.598.472-1.276.424-1.956v-1.107c-.617.824-1.59 1.304-2.62 1.292-.976.018-1.919-.354-2.62-1.033-.761-.818-1.16-1.91-1.107-3.026-.054-1.1.346-2.174 1.107-2.97.708-.67 1.646-1.04 2.62-1.034 1.028-.023 2.003.451 2.62 1.273v-1.088zm-4.207 1.716c-.528.57-.807 1.327-.774 2.103-.045.84.27 1.658.867 2.25.443.417 1.033.643 1.642.628.625.026 1.232-.208 1.679-.646.571-.593.883-1.39.867-2.214.025-.798-.267-1.574-.812-2.158-.466-.447-1.089-.692-1.734-.683-.653-.009-1.28.252-1.735.72z" transform="translate(2 7)"/>
    </g>
</svg>
