<svg xmlns="http://www.w3.org/2000/svg" xmlns:xlink="http://www.w3.org/1999/xlink" width="48" height="38" viewBox="0 0 48 38">
    <defs>
        <path id="prefix__a" d="M14 0c1.105 0 2 .895 2 2v12c0 1.105-.895 2-2 2H2c-1.105 0-2-.895-2-2V2C0 .895.895 0 2 0h12zm0 1H2c-.552 0-1 .448-1 1v12c0 .552.448 1 1 1h12c.552 0 1-.448 1-1V2c0-.552-.448-1-1-1zm-5.491 9c.241 0 .442.183.483.412L9 10.5c0 .276-.228.5-.491.5H3.491C3.22 11 3 10.768 3 10.5c0-.276.228-.5.491-.5h5.018zm3.986 0c.248 0 .454.183.497.412L13 10.5c0 .276-.214.5-.505.5h-.99c-.279 0-.505-.232-.505-.5 0-.276.214-.5.505-.5h.99zM8.51 8c.241 0 .442.183.483.412L9 8.5c0 .276-.228.5-.491.5H3.491C3.22 9 3 8.768 3 8.5c0-.276.228-.5.491-.5h5.018zm3.986 0c.248 0 .454.183.497.412L13 8.5c0 .276-.214.5-.505.5h-.99C11.226 9 11 8.768 11 8.5c0-.276.214-.5.505-.5h.99zM11.5 4c.245 0 .45.183.492.412L12 4.5c0 .276-.23.5-.5.5h-7c-.276 0-.5-.232-.5-.5 0-.276.23-.5.5-.5h7z"/>
    </defs>
    <g fill="none" fill-rule="evenodd" transform="translate(16 11)">
        <mask id="prefix__b" fill="#fff">
            <use xlink:href="#prefix__a"/>
        </mask>
        <use fill="#FFF" fill-opacity="0" xlink:href="#prefix__a"/>
        <g fill="#327EF9" mask="url(#prefix__b)">
            <path d="M0 0H48V38H0z" transform="translate(-16 -11)"/>
        </g>
    </g>
</svg>
