<svg xmlns="http://www.w3.org/2000/svg" xmlns:xlink="http://www.w3.org/1999/xlink" width="48" height="38" viewBox="0 0 48 38">
    <defs>
        <path id="prefix__a" d="M2 17c-1.105 0-2-.895-2-2V8c0-1.105.895-2 2-2 0-3.314 2.686-6 6-6s6 2.686 6 6c1.105 0 2 .895 2 2v7c0 1.105-.895 2-2 2H2zM3 6c.033-.006 10.065-.062 10 0 0-2.761-2.239-5-5-5S3 3.239 3 6zm11 1H2c-.552 0-1 .448-1 1v7c0 .552.448 1 1 1h12c.552 0 1-.448 1-1V8c0-.552-.448-1-1-1zm-7 6v-3c0-.552.448-1 1-1s1 .448 1 1v3c0 .552-.448 1-1 1s-1-.448-1-1z"/>
    </defs>
    <g fill="none" fill-rule="evenodd" transform="translate(16 10)">
        <mask id="prefix__b" fill="#fff">
            <use xlink:href="#prefix__a"/>
        </mask>
        <use fill="#FFF" fill-opacity="0" xlink:href="#prefix__a"/>
        <g fill="#327EF9" mask="url(#prefix__b)">
            <path d="M0 0H48V38H0z" transform="translate(-16 -10)"/>
        </g>
    </g>
</svg>
