<?xml version="1.0" encoding="UTF-8"?>
<svg width="52px" height="52px" viewBox="0 0 52 52" version="1.1" xmlns="http://www.w3.org/2000/svg" xmlns:xlink="http://www.w3.org/1999/xlink">
    <!-- Generator: Sketch 61.2 (89653) - https://sketch.com -->
    <title>icon/plane-medium-m</title>
    <desc>Created with Sketch.</desc>
    <g id="icon/plane-medium-m" stroke="none" stroke-width="1" fill="none" fill-rule="evenodd">
        <g id="Group" transform="translate(28.646447, 23.353553) rotate(45.000000) translate(-28.646447, -23.353553) translate(2.646447, -7.146447)">
            <path d="M26.2747211,1.03899098 C25.7436861,0.887266693 25.1902003,1.19475879 25.0384761,1.7257938 L23.5001887,7.1097996 C23.1683489,8.27123866 23,9.47325941 23,10.6813084 L22.9989386,18.5927129 L15.7061607,24.8913724 L15.7070001,22.7052346 L15.7071068,22.4275118 L13.7071068,22.4275118 C13.7071068,22.4275118 13.7071068,22.4275118 13.7071068,22.4275404 L13.7069869,26.617289 L9,30.6826512 L9,28.1346186 L7,28.1346186 L7,32.4102815 L2.03914039,36.6948557 C1.3792927,37.2647242 1,38.0934595 1,38.9653247 L1,40.4433474 L19.7429987,30.1346981 L22.9989412,30.1336905 L23.0000208,48.4885321 L17.722176,55.0103768 C17.3257075,55.5002939 17.1833591,56.1484301 17.3380438,56.7593954 L17.9539493,59.1920667 L24.5923031,52.614473 C25.3718376,51.8420735 26.6281624,51.8420735 27.4076969,52.614473 L34.0460507,59.1920667 L34.6617765,56.7601052 C34.8165286,56.1488736 34.6739857,55.5004557 34.2771367,55.0104598 L28.9998551,48.4941657 L28.9989507,30.1336908 L32.2570011,30.134698 L51,40.4433474 L51,38.9655852 C51,38.0936072 50.6206095,37.2647762 49.960586,36.6948799 L45,32.411337 L45,28.1346186 L43,28.1346186 L43,30.6843424 L39,27.2303424 L39,23.1346186 L37,23.1346186 L37,25.5045504 L28.9989386,18.5946272 L28.999,18.1368659 L29,10.6811743 C29,9.47325941 28.8316511,8.27123866 28.4998113,7.1097996 L26.9615239,1.7257938 C26.8666074,1.39358596 26.606929,1.13390751 26.2747211,1.03899098 Z" id="Combined-Shape" stroke="#F20C92" stroke-width="2" fill-opacity="0" fill="#FFFFFF"></path>
            <polygon id="Rectangle" fill="#F20C92" points="24 52.5488322 28 52.5488322 28 53.5488322 26 59.3772593 24 53.5488322"></polygon>
        </g>
    </g>
</svg>