<svg xmlns="http://www.w3.org/2000/svg" width="130" height="97" viewBox="0 0 130 97">
    <path fill="#F20C92" fill-rule="evenodd" d="M118 2c5.523 0 10 4.484 10 9.997v53.006c0 5.521-4.475 9.997-10.004 9.997l-44.997-.001.001 16L90.003 91c.511 0 .933.383.99.883L91 92c0 .552-.453 1-.997 1H53.997c-.55 0-.997-.444-.997-1 0-.552.453-1 .997-1L71 90.999l-.001-16L43 75v11.991c0 4.347-3.449 7.874-7.753 8.005l-.25.004H10.003c-4.335 0-7.867-3.452-8-7.76L2 86.992V39.01c0-4.347 3.449-7.874 7.753-8.005l.25-.004.996-.001.001-18.99C11 6.48 15.48 2 21 2h97zM34.993 33H10.006C6.69 33 4 35.695 4 39v48c0 3.314 2.69 6 6.006 6h24.988C38.31 93 41 90.305 41 87V39c0-3.314-2.69-6-6.006-6zM22 83c1.657 0 3 1.343 3 3s-1.343 3-3 3-3-1.343-3-3 1.343-3 3-3zm96.009-79H20.991c-4.324 0-7.855 3.448-7.987 7.75L13 12l-.001 18.999L34.997 31c4.335 0 7.867 3.452 8 7.76l.003.249v33.99l75.009.001c4.324 0 7.855-3.448 7.987-7.75L126 65V12c0-4.328-3.444-7.864-7.742-7.996L118.009 4zM30 38c.552 0 1 .448 1 1s-.448 1-1 1H15c-.552 0-1-.448-1-1s.448-1 1-1h15z"/>
</svg>
