<svg xmlns="http://www.w3.org/2000/svg" xmlns:xlink="http://www.w3.org/1999/xlink" width="48" height="38" viewBox="0 0 48 38">
    <defs>
        <path id="prefix__a" d="M15.5 0C17.985 0 20 2.015 20 4.5c0 2.316-1.75 4.223-4 4.472V13c0 1.105-.955 2-2.133 2H2.133C.955 15 0 14.105 0 13V5c0-1.105.955-2 2.133-2h9.123c.618-1.748 2.285-3 4.244-3zM15 9H1v4c0 .552.448 1 1 1h12c.552 0 1-.448 1-1V9zm-8.5 2c.276 0 .5.224.5.5s-.224.5-.5.5h-4c-.276 0-.5-.224-.5-.5s.224-.5.5-.5h4zm9-10C13.567 1 12 2.567 12 4.5S13.567 8 15.5 8 19 6.433 19 4.5 17.433 1 15.5 1zm.5 1v2h2v1h-2v2h-1V5h-2V4h2V2h1zm-4.973 2H2c-.552 0-1 .448-1 1v1l10.256.001C11.09 5.531 11 5.026 11 4.5c0-.169.01-.336.027-.5z"/>
    </defs>
    <g fill="none" fill-rule="evenodd" transform="translate(16 10)">
        <mask id="prefix__b" fill="#fff">
            <use xlink:href="#prefix__a"/>
        </mask>
        <use fill="#C43030" fill-opacity="0" xlink:href="#prefix__a"/>
        <g fill="#327EF9" mask="url(#prefix__b)">
            <path d="M0 0H48V38H0z" transform="translate(-15 -9)"/>
        </g>
    </g>
</svg>
