<svg xmlns="http://www.w3.org/2000/svg" width="52" height="52" viewBox="0 0 52 52">
    <path fill="#0A79FA" fill-rule="evenodd" d="M26 2c13.255 0 24 10.745 24 24S39.255 50 26 50 2 39.255 2 26 12.745 2 26 2zm7.92 32H18.08c1.236 8.195 4.316 14 7.92 14s6.684-5.805 7.92-14zm-17.822 0H5.5c2.651 6.788 8.576 11.936 15.833 13.504-2.428-2.758-4.323-7.6-5.235-13.503zM46.5 34H35.902c-.912 5.903-2.807 10.746-5.234 13.504 7.256-1.568 13.18-6.716 15.832-13.503zM4.832 19.987l-.015.054C4.285 21.935 4 23.934 4 26c0 2.086.29 4.103.832 6.015.055-.01.11-.015.168-.015h10.83c-.215-1.917-.33-3.928-.33-6s.115-4.082.33-6H5c-.057 0-.113-.005-.168-.014zm42.336-.001l-.051.008c-.039.005-.078.007-.117.007H36.17c.215 1.918.33 3.928.33 6s-.115 4.083-.33 6H47c.057 0 .113.005.168.014.542-1.91.832-3.928.832-6.014 0-2.086-.29-4.103-.832-6.015zM34.18 20H17.82c-.208 1.907-.32 3.92-.32 6s.112 4.093.32 6h16.36c.208-1.907.32-3.92.32-6s-.112-4.093-.32-6zM21.332 4.496l-.28.062C13.924 6.197 8.117 11.3 5.5 18h10.597c.913-5.903 2.808-10.746 5.235-13.504zM26 4c-3.604 0-6.684 5.805-7.92 14h15.84C32.685 9.805 29.605 4 26 4zm4.667.496l.11.127C33.154 7.4 35.005 12.187 35.904 18H46.5c-2.65-6.788-8.575-11.936-15.833-13.504z"/>
</svg>
