<svg xmlns="http://www.w3.org/2000/svg" xmlns:xlink="http://www.w3.org/1999/xlink" width="48" height="38" viewBox="0 0 48 38">
    <defs>
        <path id="prefix__a" d="M8 3.083c-.912.153-1.754.511-2.477 1.026L4.05 2.636 2.636 4.05l1.473 1.473C3.594 6.246 3.236 7.088 3.083 8H1v2h2.083c.153.912.511 1.754 1.026 2.477L2.636 13.95l1.414 1.414 1.473-1.473c.723.515 1.565.873 2.477 1.026V17h2v-2.083c.912-.153 1.754-.511 2.477-1.026l1.473 1.473 1.414-1.414-1.473-1.473c.515-.723.873-1.565 1.026-2.477H17V8h-2.083c-.153-.912-.511-1.754-1.026-2.477l1.473-1.473-1.414-1.414-1.473 1.473c-.723-.515-1.565-.873-2.477-1.026V1H8v2.083zM2.841 5.67l-.74-.74c-.485-.486-.485-1.274 0-1.76l1.07-1.068c.485-.486 1.273-.486 1.76 0l.739.74c.42-.228.864-.414 1.33-.552V1.244C7 .557 7.557 0 8.244 0h1.512C10.443 0 11 .557 11 1.244V2.29c.466.138.91.324 1.33.551l.74-.74c.486-.485 1.274-.485 1.76 0l1.068 1.07c.486.485.486 1.273 0 1.76l-.74.739c.228.42.414.864.552 1.33h1.046C17.443 7 18 7.557 18 8.244v1.512c0 .687-.557 1.244-1.244 1.244H15.71c-.138.466-.324.91-.551 1.33l.74.74c.485.486.485 1.274 0 1.76l-1.07 1.068c-.485.486-1.273.486-1.76 0l-.739-.74c-.42.228-.864.414-1.33.552v1.046C11 17.443 10.443 18 9.756 18H8.244C7.557 18 7 17.443 7 16.756V15.71c-.466-.138-.91-.324-1.33-.551l-.74.74c-.486.485-1.274.485-1.76 0l-1.068-1.07c-.486-.485-.486-1.273 0-1.76l.74-.739c-.228-.42-.414-.864-.552-1.33H1.244C.557 11 0 10.443 0 9.756V8.244C0 7.557.557 7 1.244 7H2.29c.138-.466.324-.91.551-1.33zM9 13c-2.21 0-4-1.79-4-4s1.79-4 4-4 4 1.79 4 4-1.79 4-4 4zm0-1c1.657 0 3-1.343 3-3s-1.343-3-3-3-3 1.343-3 3 1.343 3 3 3z"/>
    </defs>
    <g fill="none" fill-rule="evenodd" transform="translate(15 10)">
        <mask id="prefix__b" fill="#fff">
            <use xlink:href="#prefix__a"/>
        </mask>
        <use fill="#FFF" fill-opacity="0" xlink:href="#prefix__a"/>
        <g fill="#327EF9" mask="url(#prefix__b)">
            <path d="M0 0H48V38H0z" transform="translate(-15 -10)"/>
        </g>
    </g>
</svg>
