<svg xmlns="http://www.w3.org/2000/svg" xmlns:xlink="http://www.w3.org/1999/xlink" width="48" height="38" viewBox="0 0 48 38">
    <defs>
        <path id="prefix__a" d="M13 0c1.598 0 2.904 1.252 2.995 2.824L16 3c0 1.598-1.252 2.904-2.824 2.995L13 6c-.905 0-1.717-.402-2.267-1.037l-4.97 2.869c.131.308.212.642.232.992L6 9c0 .498-.121.967-.336 1.38l4.92 2.841c.515-.696 1.323-1.163 2.24-1.216L13 12c1.598 0 2.904 1.252 2.995 2.824L16 15c0 1.598-1.252 2.904-2.824 2.995L13 18c-1.657 0-3-1.347-3-3 0-.308.047-.606.133-.886l-5.077-2.93c-.497.468-1.155.769-1.88.81L3 12c-1.657 0-3-1.347-3-3 0-1.598 1.252-2.904 2.824-2.995L3 6c.882 0 1.675.382 2.224.988l4.988-2.88C10.075 3.767 10 3.392 10 3 10 1.402 11.252.096 12.824.005L13 0zm0 13l-.15.005c-1.041.077-1.85.94-1.85 1.995 0 1.112.895 2 2 2l.15-.005C14.191 16.918 15 16.055 15 15l-.005-.15C14.918 13.809 14.055 13 13 13zM3 7l-.15.005C1.809 7.082 1 7.945 1 9c0 1.112.895 2 2 2l.15-.005C4.191 10.918 5 10.055 5 9l-.005-.15C4.918 7.809 4.055 7 3 7zm10-6l-.15.005C11.809 1.082 11 1.945 11 3c0 1.112.895 2 2 2l.15-.005C14.191 4.918 15 4.055 15 3l-.005-.15C14.918 1.809 14.055 1 13 1z"/>
    </defs>
    <g fill="none" fill-rule="evenodd" transform="translate(16 10)">
        <mask id="prefix__b" fill="#fff">
            <use xlink:href="#prefix__a"/>
        </mask>
        <use fill="#FFF" fill-opacity="0" xlink:href="#prefix__a"/>
        <g fill="#327EF9" mask="url(#prefix__b)">
            <path d="M0 0H48V38H0z" transform="translate(-16 -10)"/>
        </g>
    </g>
</svg>
