<svg xmlns="http://www.w3.org/2000/svg" xmlns:xlink="http://www.w3.org/1999/xlink" width="48" height="38" viewBox="0 0 48 38">
    <defs>
        <path id="prefix__a" d="M9 0c4.97 0 9 4.03 9 9s-4.03 9-9 9c-1.637 0-3.173-.437-4.495-1.201L0 18l1.2-4.506C.438 12.172 0 10.637 0 9c0-4.97 4.03-9 9-9zm0 1C4.582 1 1 4.582 1 9c0 1.583.46 3.06 1.254 4.302L1.3 16.7l3.398-.954C5.94 16.54 7.417 17 9 17c4.418 0 8-3.582 8-8s-3.582-8-8-8zM5.702 4.51l.124.001c.06 0 .115 0 .167.004.151.007.296.063.407.163 0 0 .03.026.056.052.151.155.544 1.166.74 1.689.115.314.137.659.034.977 0 0-.004.004-.004.008-.167.515-.54.792-.678.885.274.5.763 1.267 1.596 1.981.697.6 1.386.956 1.897 1.167.107.044.23.015.307-.074l.985-1.111c.06-.07.16-.089.241-.052l2.182 1c.107.048.177.152.188.27.012.137.015.3-.01.49v.01c-.075.497-.364.937-.775 1.23-.155.115-.348.222-.578.311-.5.189-.937.185-1.174.163-.581-.07-1.448-.24-2.403-.7-1.034-.496-1.685-1.093-2.211-1.578-.467-.426-1.156-1.07-1.79-2.11-.373-.612-.622-1.19-.792-1.675C4.03 7.093 4 6.53 4.151 6.004l.034-.108c.137-.415.345-.73.519-.94.144-.178.374-.39.689-.434.11-.015.263-.015.433-.01z"/>
    </defs>
    <g fill="none" fill-rule="evenodd" transform="translate(15 10)">
        <mask id="prefix__b" fill="#fff">
            <use xlink:href="#prefix__a"/>
        </mask>
        <use fill="#D8D8D8" xlink:href="#prefix__a"/>
        <g fill="#327EF9" mask="url(#prefix__b)">
            <path d="M0 0H48V38H0z" transform="translate(-14 -10)"/>
        </g>
    </g>
</svg>
